<?xml version="1.0" encoding="UTF-8" standalone="no"?>
<!-- Created with Inkscape (http://www.inkscape.org/) -->

<svg
   width="3508"
   height="2480"
   viewBox="0 0 3508 2480"
   version="1.1"
   id="svg5"
   xml:space="preserve"
   sodipodi:docname="no bg.svg"
   inkscape:export-filename="no bg.svg"
   inkscape:export-xdpi="96"
   inkscape:export-ydpi="96"
   inkscape:version="1.2.2 (b0a8486541, 2022-12-01)"
   xmlns:inkscape="http://www.inkscape.org/namespaces/inkscape"
   xmlns:sodipodi="http://sodipodi.sourceforge.net/DTD/sodipodi-0.dtd"
   xmlns="http://www.w3.org/2000/svg"
   xmlns:svg="http://www.w3.org/2000/svg"><sodipodi:namedview
     id="namedview16"
     pagecolor="#505050"
     bordercolor="#eeeeee"
     borderopacity="1"
     inkscape:showpageshadow="0"
     inkscape:pageopacity="0"
     inkscape:pagecheckerboard="0"
     inkscape:deskcolor="#505050"
     showgrid="false"
     inkscape:zoom="0.1875"
     inkscape:cx="1410.6667"
     inkscape:cy="1448"
     inkscape:window-width="1366"
     inkscape:window-height="731"
     inkscape:window-x="0"
     inkscape:window-y="0"
     inkscape:window-maximized="1"
     inkscape:current-layer="g10913" /><defs
     id="defs2" /><g
     id="layer1"><g
       id="g3124"
       style="display:inline"><path
         style="display:inline;opacity:1;fill:#000000;fill-opacity:1;stroke-width:4"
         d="m 0.1077233,1028.0338 c 0,0 25.7928247,67.0978 62.2944497,104.6491 36.501625,37.5512 79.436267,64.4489 119.288357,73.4728 39.8521,9.0239 -11.74045,16.339 -23.84828,15.6668 -12.10782,-0.6722 -14.90379,-3.8276 -19.37845,-1.9055 -4.47466,1.9221 -9.50693,5.3865 -15.26253,3.028 -5.7556,-2.3585 -18.89819,-4.3224 -24.358584,-3.4013 -5.460397,0.9212 -5.27706,4.453 -13.443315,3.3906 -8.166254,-1.0624 -11.230499,-1.6929 -14.252621,-0.8963 -3.022122,0.7965 1.884467,34.2919 1.884467,34.2919 l 9.150611,36.1805 c 0,0 49.446372,58.7085 71.524132,74.3339 23.63697,21.4956 42.59834,30.746 57.34608,34.6255 14.74773,3.8794 46.48744,10.1625 51.87429,8.8374 5.38686,-1.3251 7.08557,0.6512 4.9898,3.7738 -2.09577,3.1226 -9.81387,12.1389 -14.88653,12.8543 -5.07266,0.7154 -22.27732,-1.8562 -25.86948,-1.1152 -3.59215,0.7409 -19.42541,10.7854 -26.59039,10.4712 -7.16498,-0.3142 -13.96812,-6.0622 -20.23748,-5.4083 -6.26935,0.654 -8.02331,4.387 -20.88312,5.7135 -12.85982,1.3265 -23.35801,0.2707 -26.01932,2.2242 -2.66132,1.9536 -1.52056,27.7512 -1.52056,27.7512 0,0 10.70466,32.9551 29.40708,48.269 17.5734,16.4458 41.13511,42.9568 72.1829,54.5287 33.23194,18.8102 48.50794,25.7093 48.50794,25.7093 0,0 5.51736,2.506 5.69138,5.1417 0.17401,2.6358 -9.95474,12.3074 -9.4327,12.634 0.52205,0.3267 -5.26365,2.5053 -7.59398,2.7443 -2.33032,0.239 -14.24267,-3.4109 -17.56225,-3.1343 -3.31958,0.2766 -9.2522,6.333 -15.92969,6.4316 -6.67749,0.099 -13.48169,-2.9665 -17.75732,-2.5139 -4.27564,0.4527 -15.13501,7.4141 -23.44361,7.479 -8.30859,0.065 -22.79541,-6.0571 -22.79541,-6.0571 0,0 2.40723,34.8032 5.9502,45.7075 3.54297,10.9043 19.09961,33.6436 19.09961,33.6436 0,0 9.74804,35.1884 17.98047,45.6435 8.23242,10.4551 4.39257,14.8614 14.04394,24.4151 9.65137,9.5537 19.60645,19.2021 19.60645,19.2021 0,0 4.82129,21.4551 12.60644,32.1953 7.78516,10.7403 14.89055,10.2078 14.89055,10.2078 l 35.52728,-36.7799 c 0,0 12.70928,-11.8627 14.62966,-18.9372 1.92037,-7.0745 9.43891,-31.9075 8.48597,-37.0243 -0.95294,-5.1169 -0.95363,-33.6339 -0.95363,-33.6339 0,0 -2.93062,2.6807 -10.42292,1.6276 -7.49229,-1.0531 -6.5114,-5.1974 -15.0446,-4.7423 -8.53321,0.4551 -21.96457,1.5072 -28.3741,2.2246 -6.40954,0.7175 -12.61675,-1.9383 -16.54174,-1.4301 -3.925,0.5083 -10.73159,4.2275 -18.86125,1.9176 -8.12965,-2.3098 -21.81258,-5.324 -22.32979,-10.2585 -0.51721,-4.9346 10.37389,-8.861 10.37389,-8.861 0,0 22.77243,-5.7901 25.67612,-7.3811 2.9037,-1.591 12.33915,-7.8735 17.56304,-9.6281 5.22389,-1.7546 28.34849,-13.0704 33.4619,-16.4299 5.1134,-3.3594 35.6571,-38.1547 35.6571,-38.1547 0,0 32.31285,-42.1074 34.72557,-47.9148 2.41273,-5.8074 29.31662,-63.67 29.31662,-63.67 0,0 7.9591,-32.761 12.10368,-36.6508 4.14459,-3.8898 10.69292,-9.374 10.93253,-13.6553 0.23962,-4.2813 1.34378,-14.0648 3.39743,-14.4411 2.05365,-0.3764 6.72097,16.4036 10.42775,20.7588 3.70679,4.3552 7.06693,9.3768 9.4327,15.7497 2.36577,6.3729 24.33096,56.8724 31.68239,72.7201 7.35142,15.8478 30.39316,56.5396 40.98526,62.3905 10.66599,13.7803 22.12402,25.7127 23.001,26.4937 0.87697,0.781 12.26907,14.3063 18.76907,18.1103 6.5,3.8039 19.65503,9.1111 27.99243,13.0129 8.3374,3.9019 18.80273,11.3423 24.48877,12.9585 5.68603,1.6162 17.9331,6.1665 24.59033,7.9112 16.80273,2.0898 -3.41699,11.3139 -3.41699,11.3139 0,0 -5.13916,4.6875 -12.29541,5.3418 -7.15625,0.6543 -3.78638,0.8015 -8.08374,0.5523 -4.29737,-0.2493 -10.65699,-3.6148 -12.87158,-1.949 -2.2146,1.6658 -22.74825,-10e-5 -22.74825,-10e-5 0,0 -14.55301,-1.2796 -18.70277,-1.156 -4.14976,0.1236 -7.91283,3.105 -13.5431,3.1799 -5.63027,0.075 -11.08169,-0.6277 -14.0862,-0.4157 -3.00451,0.212 -0.0594,31.565 -0.0594,31.565 0,0 4.40899,34.7358 11.12188,41.6059 6.71289,6.8702 21.34473,28.3545 34.17774,39.294 12.833,10.9394 30.05078,28.7827 30.05078,28.7827 0,0 16.70556,17.8799 24.76172,21.8066 8.82422,5.3575 30.78222,17.2803 42.47509,18.5313 15.1377,4.3369 30.0542,7.1435 35.42334,6.8935 5.36914,-0.25 13.80933,0.5822 14.08057,0.6135 10.82092,1.0843 -10.0453,15.0818 -10.0453,15.0818 0,0 -6.53487,2.8965 -11.38794,1.223 -4.85308,-1.6735 -10.8224,-3.7258 -14.70734,-2.739 -3.88494,0.9868 -17.35001,8.7694 -17.35001,8.7694 0,0 -2.16655,1.4153 -9.30011,1.2147 -7.13356,-0.2006 -17.15252,-3.6899 -21.8081,-2.7739 -4.65558,0.916 -17.22261,4.4028 -19.59943,4.5696 -2.37681,0.1668 -22.41197,2.1679 -22.41197,2.1679 0,0 -4.85031,-3.0062 -9.8988,0.6529 -5.0485,3.6592 4.56546,30.4256 4.56546,30.4256 0,0 7.59139,21.7826 14.30718,29.6902 6.71579,7.9077 23.35973,28.0019 26.44641,30.5582 3.08669,2.5564 28.59916,25.6406 40.92588,30.3956 15.7566,9.4348 48.34464,26.9079 52.6337,28.6171 35.67432,13.6475 6.23511,25.2886 6.23511,25.2886 0,0 -0.0432,0.9692 -5.04615,1.1469 -5.00293,0.1778 -10.06518,-3.4841 -14.10424,-3.0004 -4.03907,0.4836 -11.58155,6.8169 -16.61353,6.0034 -5.03198,-0.8135 -14.48828,-2.5916 -18.80517,-2.3169 -4.3169,0.2746 -15.3667,6.5466 -22.12207,6.5466 -6.75538,0 -21.74439,-3.3447 -24.26856,-4.7192 -6.20972,0.3283 -15.71973,1.4953 -21.04126,0.3586 -5.32153,-1.1367 4.17852,28.8893 9.9652,37.6066 5.78667,8.7173 31.50492,32.676 31.50492,32.676 0,0 17.03696,50.433 24.31919,57.1351 7.28222,6.7022 4.79345,18.3897 17.93213,27.5352 13.13867,9.1455 21.25781,17.5781 29.69677,16.3013 12.83057,7.6299 21.78296,15.7707 24.85791,20.0197 7.48096,4.5159 12.40967,8.2264 14.33448,10.4278 1.9248,2.2014 6.57788,4.9599 8.60327,7.019 2.02539,2.0591 7.97802,1.8374 10.80298,3.9976 2.82495,2.1601 11.38208,8.6047 12.84936,9.0932 1.46729,0.4886 2.59912,2.6573 5.74536,2.813 9.22754,-5.3159 9.81324,2.9998 9.81324,2.9998 0,0 -4.85254,6.8181 -9.7063,6.1074 -4.85376,-0.7107 -8.82788,-5.0439 -12.05347,-3.6677 -3.22559,1.3762 -12.66299,10.9563 -20.55096,10.2702 -7.88797,-0.686 -22.66471,-5.5174 -29.21684,-4.8282 -6.55213,0.6891 -20.69254,6.3163 -30.1425,5.7798 -9.44995,-0.5366 -21.62407,-3.7096 -26.36942,-2.2049 -4.74535,1.5047 -11.22931,45.8293 -10.16877,49.8993 1.06055,4.0701 10.29737,49.2725 16.83448,54.3243 6.5371,5.0517 32.3125,34.5019 40.35449,38.0205 C 748.38866,2483.0654 0,2480 0,2480 Z"
         id="path2842" /><path
         id="path3117"
         style="display:inline;opacity:1;fill:#000000;fill-opacity:1;stroke:none;stroke-width:4;stroke-opacity:1"
         d="m 2831.125,1174.5566 c 0.647,4.2725 -10.4468,22.6441 -14.5859,25.3907 -4.1392,2.7466 -12.6797,34.0996 -12.6797,34.0996 l -22.4824,48.7715 c 0,0 -10.4463,29.166 -16.7891,35.7793 -6.3428,6.613 -52.1445,63.4433 -55.1524,66.9707 -3.0078,3.5273 -32.6267,15.7919 -38.9941,18.7695 -6.3674,2.9776 -9.7084,5.2409 -16.6855,9.4863 -6.9772,4.2454 -32.5606,9.9227 -36.3106,11.9356 -3.7499,2.0129 -2.2812,4.4978 -1.4629,5.9238 0.8183,1.4259 16.6548,9.8308 24.1895,11.1894 7.5348,1.3587 12.9941,-2.3748 18.9863,-2.1093 5.9921,0.2655 6.6865,2.6568 16.5215,2.0215 9.8349,-0.6353 17.7243,-2.9835 22.9336,-2.7383 5.2094,0.2451 9.2209,1.5132 16.6504,2.0332 7.4294,0.5199 13.5088,9.1474 13.9804,15.2187 0.4717,6.0713 -2.4304,24.4505 -3.2011,28.5723 -0.7706,4.1218 -6.6133,28.7031 -6.6133,28.7031 0,0 -29.986,33.9911 -43.6192,46.7481 -3.54,12.7058 -54.6645,49.446 -67.9667,56.4453 -13.3024,6.9992 -39.4123,8.8045 -51.3965,10.7773 -11.9842,1.9729 -22.2587,1.606 -21.6524,6.4688 0.6063,4.8627 8.877,11.4977 15.377,12.7109 6.5,1.2133 20.6871,-1.9839 26.7832,-0.8984 6.096,1.0856 12.1075,7.8281 20.164,9.25 8.0564,1.4218 21.6917,-3.7971 26.3438,-4.4766 4.6522,-0.6795 7.8178,3.8687 11.8125,4.5606 3.9947,0.6919 21.3237,2.314 27.9473,3.4257 6.6233,1.1118 6.0629,18.7611 5.6347,29.8731 -0.4281,11.1121 -11.0705,24.4413 -12.5136,27.4062 -1.4433,2.9648 -34.3887,40.6592 -42.4629,47.709 -8.0742,7.0498 -78.4981,44.8672 -78.4981,44.8672 0,0 -21.1323,7.7087 -21.1973,11.4141 -0.064,3.7054 13.2368,15.3499 18.1016,16.1269 4.8648,0.777 13.2679,-3.2724 17.4981,-3.0957 4.2302,0.1768 0.2962,1.6091 7.2636,4.711 6.6879,-1.5012 19.6149,3.0798 26.9414,-0.8321 2.9424,2.2166 18.1751,5.5855 21.5684,6.0606 3.3933,0.4751 11.3793,7.737 15.0605,20.8164 3.6812,13.0794 -12.62,44.2496 -14.3125,45.7832 -1.6925,1.5337 -7.6816,28.4926 -9.2519,33.2207 -1.5702,4.7281 -12.3814,22.2447 -17.6074,34.9961 -0.8273,11.5554 -24.2325,25.1649 -27.67,26.584 -3.4375,1.419 -15.4894,3.709 -21.082,6.6093 -5.5926,2.9002 -14.4132,16.0737 -16.2031,18.3594 -1.7898,2.2857 -5.1195,3.25 -10.6152,6.0488 -5.4959,2.7987 -13.6719,9.2032 -13.6719,9.2032 0,0 -0.6456,-8.4962 -4.5196,-12.8243 -3.8738,-4.3279 -12.5537,-20.2724 -14.7773,-26.0957 -2.2236,-5.8232 -1.5684,-18.0175 -1.5684,-18.0175 0,0 -7.75,-14.5165 -9.7636,-8.4121 -2.0137,6.1045 -18.75,31.2168 -18.75,31.2168 0,0 -19.3857,28.6099 -27.5664,46.3964 -1.0061,17.6314 -35.4,64.8331 -40.2696,77.1329 -4.8697,12.2994 -47.079,47.7314 -50.6386,50.0898 -3.5595,2.3584 -7.1099,8.729 -18.17,17.209 -5.3335,10.3764 -24.1695,14.4126 -25.8164,15.3457 -1.647,0.9331 -3.7719,2.5615 -1.3261,5.2773 2.4458,2.7158 17.6548,6.0249 24.8886,5.2637 7.2339,-0.7612 16.6739,-3.1776 23.418,-7.0566 6.7441,-3.8789 4.709,2.3964 8.2012,11.1445 3.4922,8.748 -8.6465,48.6054 -27.4844,73.6387 -18.8379,25.0329 -78.6416,47.539 -104.9551,48.539 -13.208,1.75 -74.4895,-34.2197 -90.6347,-43.8418 -10.6767,-4.4551 -65.8037,-69.9773 -67.9102,-72.3086 -2.1064,-2.3313 -3.7216,-12.3982 -6.7793,-16.3066 -3.0577,-3.9084 -11.3175,-27.5858 -7.7363,-26.5742 3.5811,1.0116 12.6206,-3.6033 18.2519,-5.7246 5.6313,-2.1213 7.7353,-5.711 13.0821,-6.5176 5.3468,-0.8065 12.7003,3.6096 13.3418,6.1211 0.6415,2.5115 22.7174,3.9454 31.4375,6.4472 8.7197,2.5018 8.8641,-6.7333 14.1308,-12.4433 5.2667,-5.71 39.0158,-4.6712 19.9668,-10.8867 0,0 -33.4387,-13.4623 -40.8633,-15.5332 -7.4246,-2.0709 -24.9755,-13.8942 -38.9726,-22.0059 -13.9972,-8.1117 -18.9691,-19.3962 -28.4453,-32.4062 -9.4762,-13.0104 -14.3895,-38.4672 -21.5352,-51.9395 -7.1456,-13.4723 -8.5945,-46.2133 -20.9219,-84.9023 -12.3274,-38.6892 -43.2788,-170.753 -59.3047,-109 -16.0256,61.7528 -45.1616,80.0385 -42.4707,86.3828 2.6909,6.3442 -4.2149,32.523 -11.7597,53.914 -7.5448,21.3914 -43.3602,76.2368 -47.8086,78.209 -4.4484,1.9722 -13.0815,-10.3461 -23.8594,-12.3555 -10.7778,-2.0095 -40.1852,-28.3024 -52.4629,-43.164 -13.3107,-10.2779 -34.2872,-59.6291 -47.957,-74.8692 -13.6698,-15.2398 -26.9791,-73.0644 -36.6328,-86.4414 -9.6537,-13.3767 -10.4949,-4.5646 -23.6758,-10.9023 -13.181,-6.3377 -37.7885,-55.2602 -40.3145,-32.7129 -2.526,22.5473 -29.498,60.2324 -29.498,60.2324 0,0 -5.601,31.7716 -13.7617,70.4981 3.1405,39.0287 -51.9947,97.3629 -54.541,100.2148 -2.5464,2.8519 -16.2947,8.3082 -19.6289,9.1524 -3.3346,0.8442 -10.1889,6.8919 -14.6055,9.875 -4.4167,2.9831 -16.1836,7.7109 -16.1836,7.7109 0,0 -31.9205,11.886 -33.5957,12.752 -1.6752,0.8656 3.1442,4.8374 6.1308,6.1015 2.9866,1.264 8.5214,-0.2936 12.8418,0.959 9.9702,14.8935 14.7524,12.9729 21.1914,14.4414 6.4392,1.4684 35.8672,-11.703 40.4375,-11.791 4.5707,-0.088 20.7735,10.2012 20.7735,10.2012 0,0 4.5415,3.0219 4.9883,4.6308 0.4468,1.609 -4.3689,26.9326 -5.3653,34.6328 -0.9965,7.7001 -16.9321,25.4093 -30.0273,37.7071 -5.7605,13.387 -53.7189,49.5799 -65.9883,57.3046 -5.8592,8.0171 -64.217,25.8177 -71.4297,27.6504 -7.2126,1.8322 -22.1054,-2.5499 -25.2246,1.8868 -2.7966,3.0694 12.9714,18.5161 16.7852,19.2246 3.8138,0.7085 7.3124,1.1455 14.0644,0.3672 5.5512,-3.2427 28.5378,-9.1001 33.4551,-9.1661 4.9173,-0.066 15.9277,11.7696 15.9277,11.7696 0,0 -0.8276,22.2003 -0.1875,28.1718 4.1501,3.6425 -1.406,10.7534 -1.9336,16.9786 -0.5275,6.2252 -22.4672,24.7714 -24.2343,24.7714 -1.767,0 -16.2276,14.8955 -23.8672,22.1758 -2.7066,7.1939 -40.3506,29.0244 -45.666,31.5742 -5.3155,2.5498 -9.2676,-15.1914 -9.2676,-15.1914 0,0 -8.1338,-7.6406 -15.6797,-11.6015 -7.5459,-3.961 -27.3574,-22.3672 -27.3574,-22.3672 0,0 -19.7979,-20.9209 -23.2539,-24.4629 -3.4561,-3.542 -21.3284,-14.3321 -26.9453,-22.627 -5.6172,-8.2946 -1.6846,-18.0858 1.5761,-22.5136 3.2608,-4.4277 8.7569,0.457 16.291,-3.6914 7.5342,-4.1485 -0.5048,-4.7656 11.0352,-7.416 11.54,-2.6503 20.2988,5.3096 29.4609,2.6621 9.1621,-2.6474 15.6822,-24.9528 18.2598,-24.8848 2.5777,0.068 2.8108,-0.8733 7.0098,-3.5508 -1.4249,-2.063 -10.1865,-5.511 -18.2188,-8.2207 -8.0323,-2.7096 -8.5034,-3.1282 -28.0254,-12.1113 -19.5221,-8.9832 -44.2316,-49.9971 -49.8691,-60.1231 -6.065,-3.5797 -53.1655,-92.0234 -55.5606,-97.3925 -3.994,-3.2714 -4.2483,-11.9593 -5.8515,-15.4668 -1.6033,-3.5076 -0.1208,-12.4051 -0.5723,-13.6543 -0.4514,-1.2492 -4.252,-5.0528 -7.2598,-5.0528 -3.0078,0 -20.3886,27.9629 -20.3886,27.9629 0,0 -10.2808,15.5226 -16.0977,23.3946 -3.2099,3.3347 -7.8877,10.4518 -18.9805,40.4707 -1.4791,23.3245 -56.0999,84.1001 -63.6543,92.2519 -7.8352,4.5734 -19.13298,18.5942 -23.85347,21.1367 -4.72046,2.5426 -10.99664,9.2625 -20.11718,17.3321 -9.12054,8.0696 -18.83203,10.4062 -18.83203,10.4062 0,0 -6.09379,2.5492 -6.2754,4.6445 -0.18158,2.0952 4.54443,5.3257 6.74219,6.1563 2.19775,0.8305 15.54834,2.7886 20.18555,2.5391 4.63718,-0.2496 20.51807,-3.1485 23,-4.543 2.48194,-1.3946 7.61328,-1.5508 7.61328,-1.5508 0,0 0.38184,8.9825 -0.5957,19.5469 2.0957,17.3853 -4.54541,32.3098 -6.19336,37.4316 -1.64795,5.1218 -12.5972,18.6548 -24.64844,30.4942 -7.93454,10.8053 -19.44678,16.6836 -24.61719,21.2754 -5.17038,4.5915 -21.07326,9.6259 -28.28515,11.1132 -7.21191,1.4873 -21.33744,8.1865 -34.13672,13.4063 -8.44236,1.1215 -23.56935,7.1655 -26.5586,7.8887 -2.98923,0.7231 -15.19143,7.5571 -21.59765,12.5371 -0.354,3.8403 5.87795,6.5547 8.9414,6.8047 3.06348,0.2497 20.21292,-2.0914 26.19336,-2.8301 5.98047,-0.7388 14.30862,3.3652 20.39258,3.3652 6.08398,0 34.85743,-9.9414 41.42188,-13.2695 6.56443,-3.3282 9.70118,7.8965 17.73047,16.7754 8.02927,8.8789 -6.01953,14.7441 -6.63672,18.6582 -0.61718,3.914 -6.98828,11.4687 -6.98828,11.4687 L 3508,2480 l 0.08,-239.6875 -0.078,-8.8906 c 0,0 -3.9878,-3.5125 -15.4903,-16.166 -11.876,-8.1861 -13.1352,-23.936 -20.6855,-33.7637 -7.5503,-9.8277 -14.0152,-13.0341 -19.0313,-25.084 -5.016,-12.0498 11.5425,-17.7462 22.7637,-16.332 11.2211,1.4142 32.4434,-6.877 32.4434,-6.877 l 0.021,-46.2285 c 0,0 -0.5575,-0.3891 -2.916,-1.5312 -2.3585,-1.1421 -17.8975,-15.0399 -20.9258,-17.9688 -3.0284,-2.9289 -35.9711,-34.7657 -36.5761,-36.3574 -0.6049,-1.5917 -27.0939,-25.1135 -32.8301,-34.2656 -5.7363,-9.1523 -9.0899,-42.3457 -9.0899,-42.3457 0,0 -5.7285,-6.7909 -7.2539,-15.1602 -1.5253,-8.3693 5.437,-16.1504 14.5079,-16.1504 9.0705,0 11.814,-3.3418 21.6855,-3.3418 9.8715,0 13.6969,1.7832 24.5625,1.7832 10.8655,0 11.9197,-1.843 14.3828,-1.916 2.4631,-0.073 9.7732,2.6799 16.4277,2.6699 6.6548,-0.01 17.9825,-4.914 17.9825,-4.914 0,0 0.8911,-13.62 0.9101,-13.7969 0.019,-0.177 -2.3261,-0.6367 -2.3261,-0.6367 0,0 -24.1802,-9.1841 -29.6836,-11.2813 -5.5035,-2.0971 -12.0625,-6.5342 -25.0157,-12.0176 -10.0659,-0.7373 -13.5068,-6.4741 -21.0293,-10.9707 -6.2558,-2.3242 -20.25,-21.2461 -25.2402,-24.7871 -4.9902,-3.541 -8.7202,-11.9155 -9.7773,-12.959 -1.0572,-1.0434 -7.045,-7.3789 -7.045,-7.3789 0,0 -11.1298,-18.4062 -16.2226,-20.9902 -5.0927,-2.584 -12.6641,-22.6738 -12.6641,-22.6738 l -24.5918,-49.7305 c 0,0 -11.9702,-32.6787 -13.1992,-35.3594 -1.229,-2.6807 -9.8301,-18.1973 -12.7461,-21.7461 -2.916,-3.5488 -4.8897,-21.1298 -6.4473,-17.3242 -1.5576,3.8057 -14.8144,24.9707 -14.8144,24.9707 l -7.7637,14.3496 -8.6953,25.6016 -21.5469,46.2715 -12.7187,26.0625 c 0,0 -28.6872,36.1144 -30.0449,38.8222 -1.3576,2.7078 -3.2449,5.8807 -4.7207,7.0762 -1.4759,1.1956 -19.8007,20.771 -21.7149,23.0332 -1.9141,2.2622 -16.6056,13.6528 -18.9648,15.0176 -2.3592,1.3649 -17.1647,5.6707 -21.9629,7.8359 -4.7982,2.1652 -6.0184,5.1834 -10.3867,5.9219 -4.3683,0.7386 -11.1602,5.7441 -11.1602,5.7441 0,0 -30.6228,9.7002 -33.8262,11.0274 -3.2034,1.3272 2.8444,2.9729 6.2539,7.3008 3.4095,4.3279 19.907,8.331 23.9493,9.2636 4.0424,0.9325 8.7467,-3.7381 12.8574,-3.3086 4.1107,0.4295 9.8924,2.4347 15.1992,2.0293 5.3067,-0.4053 29.9206,-2.4511 44.0586,-2.4511 14.138,0 8.4896,29.2471 11.0957,34.1679 2.606,4.9207 -5.4455,23.31 -6.1523,29.8204 -0.7071,6.51 -28.1602,38.1269 -28.1602,38.1269 0,0 -25.8625,-0.5257 -50.082,-16.0254 -24.2198,-15.4997 -26.8204,-35.1181 -40.8575,-47.0312 -14.0369,-11.9131 -18.3437,-45.5352 -18.3437,-45.5352 0,0 -23.18,-21.9299 -21.2051,-36.6933 1.9749,-14.7636 -5.0382,-39.8284 -1.2265,-39.5059 3.8114,0.3225 18.9214,5.3409 26.8398,5.1641 7.9183,-0.1767 21.9429,-5.5399 25.1504,-6.5391 3.2075,-0.9992 11.4544,3.1817 18.6387,3.0195 7.184,-0.1623 9.3609,-6.993 13.5234,-7.1504 4.1626,-0.1574 16.085,2.9524 21.0293,3.6602 4.9442,0.7078 16.5234,-16.2442 8.2793,-16.877 -8.2442,-0.6328 -59.7774,-38.4394 -86.7305,-51.1152 -26.9531,-12.6758 -61.5234,-74.2246 -61.5234,-74.2246 0,0 -4.2285,-9.9383 -5.3164,-16.9824 -1.088,-7.0442 3.335,-17.243 3.664,-17.8496 0.3291,-0.6066 17.0577,-1.7476 26.9981,-2.4278 7.9039,-2.4077 17.2451,-2.8134 23.1894,-3.8144 2.7266,1.108 15.1114,2.3724 24.6465,1.6015 3.2525,-3.2828 18.7266,-7.6504 21.834,-7.9004 3.1074,-0.25 10.1816,0.2515 12.9277,1.295 2.7461,1.0434 9.7056,-1.7969 13.1875,-2.795 3.4819,-0.998 7.3999,-7.2685 11.3848,-9.2382 3.9848,-1.9698 -1.062,-3.8477 -2.6426,-4.4512 -1.5805,-0.6035 -20.0508,-1.6824 -47.6777,-8.4941 -20.4346,0.3718 -46.0537,-21.2691 -52.2617,-24.1016 -6.208,-2.8325 -37.4087,-36.626 -43.9649,-42.7481 -6.187,-2.1045 -31.2558,-34.0957 -37.1172,-39.8144 -5.8613,-5.7188 -9.5986,-38.1626 -10.1386,-39.4727 -0.5401,-1.31 -6.6846,-18.3652 -7.1719,-22.6933 -0.4873,-4.3282 5.8047,-12.0819 9.5371,-11.8575 3.7324,0.2246 5.5423,3.25 8.6758,3.25 3.1334,1e-4 12.1201,-5.4785 20.4473,-5.4785 8.3268,0 15.039,2.9331 20.2988,3.0703 5.2597,0.1372 11.914,-2.2734 15.7363,-2.8984 3.8223,-0.625 6.9766,1.9888 10.2539,1.8281 3.2773,-0.1606 13.4429,0.1802 21.6797,-2.6757 6.6865,-0.5865 12.5982,-11.8175 11.5352,-13.2286 -1.0629,-1.4112 -11.384,-5.8232 -15.3789,-5.0859 -3.9951,0.7373 -17.0127,-7.3257 -22.3926,-8.3105 -5.3799,-0.9849 -12.8164,-7.2671 -14.4824,-8.0235 -1.666,-0.7563 -10.9873,-5.1841 -25.7051,-10.7305 -12.3604,-5.924 -13.3169,-9.8838 -22.2422,-19.2343 -5.2896,-1.2129 -20.396,-22.5374 -23.9063,-28.6367 -3.1138,0 -22.665,-29.4253 -25.416,-31.3086 -2.751,-1.8833 -8.9536,-19.2315 -10.0488,-20.7305 -1.0952,-1.499 -17.5684,-34.0156 -17.5684,-34.0156 0,0 -17.873,-47.4879 -22.0859,-56.8282 -4.5552,-1.7637 -9.334,-11.8339 -9.334,-11.8339 0,0 -7.8423,-20.751 -7.1953,-16.4786 z m -309.7109,899.7579 c 3.4238,-0.2304 31.7226,8.0878 43.2597,4.916 11.5371,-3.1719 25.4082,5.2461 29.9395,11.9199 4.5312,6.6738 -6,49.2265 -6.5,57.8711 -0.5,8.6445 -12.0957,22.0547 -12.0957,22.0547 0,0 -20.3653,-24.3592 -22.4746,-24.045 -2.1094,0.3145 -48.3633,-70.4628 -48.3633,-70.4628 0,0 12.8105,-2.0234 16.2344,-2.2539 z m 573.2421,56.7832 c 10.37,0.031 29.9932,6.9804 34.7754,6.5742 5.8857,-0.5 8.7091,17.8878 9.0157,29.2383 0.3067,11.3505 -6.503,21.4228 -11.7442,29.0937 -5.2412,7.6709 -18.9639,-4.498 -32.709,-15.0898 0,0 -11.788,-22.6582 -13.1621,-32 -1.374,-9.3418 2.4913,-11.7314 8.42,-16.5586 1.1116,-0.9051 3.0112,-1.2651 5.4042,-1.2578 z m -832.8105,240.9101 c 8.5957,0.3091 14.5689,16.0595 18.3223,16.8184 4.2896,0.8673 -7.8416,20.9843 -10.4629,26.7558 -2.6212,5.7715 -65.4375,56.916 -65.4375,56.916 0,0 -29.9234,-26.9011 -34.7227,-29.8925 -4.7992,-2.9914 -16.2398,-25.4471 -17.875,-29.002 -1.6352,-3.5548 1.67,-13.6581 2.0235,-19.123 0.3536,-5.4649 9.5663,-13.5663 13.4609,-14.2735 3.8946,-0.7071 6.3433,2.2155 9.3789,2.4102 3.0356,0.1947 17.6044,-0.658 23.8828,-0.709 6.2783,-0.051 14.8891,2.8198 22.2129,4.2188 7.3238,1.399 24.6816,-7.8182 35.3711,-13.2168 1.3362,-0.6749 2.6177,-0.9465 3.8457,-0.9024 z" /></g><g
       id="g10913"
       style="display:inline"><path
         style="opacity:1;fill:#000000;fill-opacity:0.25;stroke:none;stroke-width:4;stroke-opacity:1"
         d="m 78.93839,1148.4982 c 0,0 8.96175,-6.971 14.908628,-13.8736 5.946879,-6.9025 20.178782,-25.5656 21.046092,-31.0581 0.86731,-5.4925 7.04483,-24.1576 6.03596,-29.7517 -1.00887,-5.594 -2.95756,-6.81 -9.94231,-6.8128 -6.98475,0 -18.452447,-3.5997 -21.639951,-4.1107 -3.187505,-0.511 -10.278599,3.9243 -16.439543,3.9243 -6.160944,0 -7.977732,-7.986 -13.832082,-7.986 -5.85435,0 -14.508812,0 -18.183834,0 -3.675022,0 -8.078557,-6.0401 -8.078557,-8.9017 0,-2.8616 4.915911,-4.7039 4.915911,-4.7039 0,0 14.908283,-0.01 20.106278,-2.2063 5.197994,-2.1976 30.411115,-9.5656 34.314704,-15.9175 8.296764,-7.9038 54.564184,-63.27403 54.564184,-63.27403 0,0 0.31773,-4.52499 1.99711,-7.62653 1.67938,-3.10153 7.00098,-24.86543 6.56629,-28.32915 -0.4347,-3.46372 4.32032,-23.86693 1.03338,-25.38956 -3.28694,-1.52262 -4.2545,0.24709 -8.20372,-0.0273 -3.94922,-0.27441 -8.69091,-4.01318 -11.76904,-3.77734 -3.07812,0.23584 -10.24561,2.51562 -14.50244,2.51562 -4.25684,0 -7.76035,-3.21291 -9.10133,-2.43869 -1.34098,0.77421 -6.22998,2.9934 -11.1715,2.9934 -4.941527,0 -13.095335,-3.06252 -14.114866,-5.57473 -1.019532,-2.5122 -4.049317,-4.88965 -3.029785,-6.68847 1.019531,-1.79883 5.902832,-3.41455 7.546386,-3.76221 1.643555,-0.34766 14.948245,-5.78516 16.951175,-6.64795 2.00293,-0.86279 6.00488,-6.08398 9.68017,-7.45459 3.6753,-1.37061 19.8916,-9.28076 22.14649,-12.44287 2.25488,-3.16211 22.15234,-30.40039 23.77539,-32.14942 1.62304,-1.74902 20.61719,-36.65625 21.63281,-39.8291 1.01563,-3.17285 18.51465,-47.68457 18.51465,-47.68457 l 5.88379,-24.53222 c 0,0 11.47851,-7.28614 11.77246,-14.00196 0.29394,-6.71582 14.25683,31.8418 14.25683,31.8418 l 25.08497,65.46582 c 0,0 32.08007,53.16113 39.09082,59.17773 7.01074,6.01661 19.04003,12.4004 22.36914,14.00879 3.3291,1.6084 14.25781,9.24903 18.11035,9.95899 3.85254,0.70996 11.87402,5.68359 14.73828,6.18457 2.86426,0.50097 6.99805,2.19629 3.09375,5.1709 -3.9043,2.97461 -11.13086,11.00586 -16.24707,10.16504 -5.11621,-0.84082 -8.77773,-2.46237 -12.72241,-2.81765 -3.94467,-0.35528 -7.8051,1.39695 -11.12105,1.0434 -3.31594,-0.35356 -8.72938,-2.55878 -14.38969,-2.15102 -5.66031,0.40776 -12.88709,2.24873 -15.83291,2.24873 -2.94582,0 -17.17876,1.88412 -21.82881,1.77122 -4.65006,-0.1129 2.20151,10.5352 9.40073,17.13578 7.19922,6.60059 8.10693,5.73633 10.104,11.63672 1.99707,5.90039 6.53223,26.70459 11.37598,31.92627 4.84375,5.22168 24.85058,31.52198 30.88428,38.50728 6.03369,6.9854 20.56461,27.0833 33.78626,31.9978 13.22166,4.9145 31.39893,12.0612 36.79027,10.7696 5.39135,-1.2917 9.51867,1.1849 10.40497,1.8606 3.91981,7.9253 -9.44754,12.6799 -9.44754,12.6799 0,0 -11.84957,-2.23 -14.14283,-1.7152 -2.29326,0.5147 -14.13488,7.7874 -18.78425,7.5903 -4.64936,-0.1971 -6.799,-2.9206 -11.74598,-2.6026 -4.94699,0.318 -21.4908,5.5605 -27.05858,5.3585 -5.56777,-0.202 -7.73363,13.2748 -5.49043,17.2558 2.2432,3.9809 11.11486,32.36 23.98059,46.591 12.86572,14.2309 34.89795,36.6884 53.96045,43.5498 15.26855,9.8086 21.69677,13.3003 22.21191,15.5049 0.51514,2.2045 4.48926,3.8286 4.48926,3.8286 l 17.27783,-19.7735 30.96142,-39.4555 c 0,0 8.86475,-25.7447 7.9629,-31.2134 -0.90186,-5.4688 -0.18848,-25.7935 -3.7212,-26.4644 -3.53271,-0.6709 -14.15112,-2.8283 -16.79785,-2.3886 -2.64673,0.4397 -10.59692,2.1049 -15.31445,2.656 -4.71753,0.551 -5.04981,-0.6851 -7.84961,-1.3057 -2.7998,-0.6206 -5.18848,1.4175 -9.65503,1.6064 -4.46655,0.189 -19.39917,-7.6479 -19.03369,-10.7019 0.36548,-3.0539 8.23218,-5.779 8.5625,-5.779 0.33032,0 13.22681,-4.721 17.47144,-6.9426 4.24462,-2.2217 1.93945,-2.4261 10.11669,-6.6453 8.17725,-4.2192 16.35352,-8.4133 18.24244,-10.0493 1.88891,-1.636 20.75815,-27.3936 23.541,-31.1508 2.78285,-3.7571 10.68592,-16.3166 10.68592,-16.3166 0,0 5.56824,-9.39466 8.05701,-13.57044 2.48877,-4.17578 11.74072,-29.18896 11.74072,-29.18896 l 11.62403,-31.71924 7.56982,-21.91846 4.60986,-9.81787 c 0,0 4.69727,-5.61816 5.3252,-9.20654 0.62793,-3.58838 5.96484,9.29834 6.91895,12.00293 0.9541,2.70459 8.06591,19.34595 8.06591,19.34595 0,0 18.3595,51.94351 22.39636,59.94611 4.03686,8.00259 22.31678,40.18202 22.31678,40.18202 0,0 17.69552,25.4366 24.55252,30.4665 6.85701,5.0298 13.27048,7.1307 17.79025,10.0692 4.51978,2.9384 6.61743,6.2993 11.08301,8.0715 4.46558,1.7722 18.50806,7.2144 20.73975,7.7549 9.36425,-2.2266 -1.50171,9.5952 -1.50171,9.5952 0,0 -9.77198,6.573 -15.17408,5.9231 -5.4021,-0.6499 -5.69897,-3.6799 -7.83227,-3.2962 -2.1333,0.3838 -6.84961,2.2137 -10.06055,2.1578 -3.21094,-0.056 -8.46509,-3.3509 -12.64966,-2.9314 -4.18457,0.4194 -9.85107,2.5754 -13.78711,2.8069 -3.93603,0.2314 -2.1101,-1.9812 -6.19555,1.0891 -4.08545,3.0703 -0.51758,22.3774 -0.51758,22.3774 0,0 1.02169,22.4582 7.78478,32.9247 6.76309,10.4664 19.58976,28.4051 22.15164,30.6217 2.56188,2.2166 27.64415,33.9397 33.81165,37.9472 6.16751,4.0076 24.55643,15.1321 33.90108,16.0909 9.34465,0.9588 16.91048,2.5487 22.27317,2.8778 5.36269,0.329 3.54417,5.8702 2.14135,7.0486 -1.40282,1.1784 -6.40471,6.6985 -8.47596,6.6985 -2.07126,0 -8.01399,-1.8289 -13.8169,-0.7195 -5.8029,1.1093 -9.09019,7.6041 -14.27402,7.4325 -5.18384,-0.1716 -14.70044,-3.5317 -18.256,-3.0994 -3.55556,0.4323 -9.297,3.944 -14.46599,4.4008 -5.16899,0.4567 -11.32994,-2.4107 -15.3378,1.0668 -4.00786,3.4776 0.36633,22.7897 0.74302,22.5853 0.37668,-0.2044 6.78824,25.0406 13.2609,31.3433 6.47265,6.3028 12.15455,17.9491 17.26968,21.091 5.11513,3.142 9.66022,5.4711 11.49255,4.4036 1.83233,-1.0676 9.03944,-10.7613 10.07973,-12.3892 1.04029,-1.628 15.61366,-22.2073 19.24034,-24.4639 3.62669,-2.2567 15.84223,-18.9952 16.24965,-23.5017 0.40741,-4.5064 31.27048,-67.8833 31.27048,-67.8833 l 13.88664,-36.938 c 0,0 16.41779,-16.2517 16.32975,-21.1711 -0.088,-4.9193 12.24869,20.1495 12.24869,20.1495 0,0 14.41247,26.8408 16.05212,31.5225 1.63964,4.6816 9.07568,21.7666 10.96826,27.2192 1.89258,5.4527 18.1792,38.8452 18.9292,40.291 0.75,1.4458 8.44384,17.4307 11.16601,19.2442 2.72217,1.8134 19.18604,24.1196 19.18604,24.1196 0,0 6.97412,10.5825 9.86377,12.7637 2.88964,2.1811 27.38086,30.5561 28.4497,30.4311 1.06885,-0.125 7.97364,4.9751 12.7627,7.5147 4.78906,2.5395 18.1748,5.6987 22.50732,8.9897 4.33252,3.291 6.667,5.4712 12.19043,7.8638 5.52344,2.3926 35.08107,12.2539 35.08107,12.2539 14.4204,-4.0679 0.374,10.3198 0.374,10.3198 0,0 -9.5708,8.8159 -20.81151,8.0308 -11.24073,-0.7852 -15.95251,1.7375 -18.96192,0 -3.0094,-1.7375 -7.40283,0 -12.51318,0 -5.11035,0 -18.68066,-3.2525 -25.70117,-3.2525 -7.02051,0 -12.25684,4.024 -22.62305,4.024 -10.36621,0 -12.82666,3.124 -13.18555,11.354 -0.35888,8.23 9.07471,28.9629 9.07471,28.9629 0,0 5.69676,29.6727 9.19638,33.2594 3.49963,3.5866 84.84319,84.5931 84.84319,84.5931 0,0 40.1752,24.206 53.9597,25.4393 13.7844,1.2333 41.1834,4.9843 43.2882,4.755 23.1163,-3.0038 -10.4782,14.2616 -10.4782,14.2616 0,0 -1.5969,2.5457 -6.7448,2.0212 -5.1479,-0.5244 -11.8295,-1.8254 -17.861,-2.401 -6.0315,-0.5755 -23.5072,11.8889 -29.6795,10.6705 -6.1723,-1.2184 -13.2859,-4.2817 -20.8472,-3.7779 -7.5614,0.5037 -49.79689,8.2676 -49.79689,8.2676 0,0 -3.44364,12.6007 -1.37135,18.7444 2.07229,6.1436 10.91044,25.9516 13.64357,30.9821 2.73313,5.0306 19.00833,23.5189 19.00833,23.5189 0,0 23.40744,-5.4329 36.46794,-12.304 13.0606,-6.8711 53.2334,-32.5556 62.5762,-49.8427 21.4131,-18.0811 45.7881,-42.9082 49.1221,-54.6983 3.334,-11.79 4.3066,-21.2685 6.8389,-42.459 2.5322,-21.1904 -14.5987,-25.6084 -14.5987,-25.6084 0,0 -4.7969,-2.0283 -13.6826,-2.0283 -8.8857,0 -21.7393,2.0791 -28.6885,1.8652 -6.9492,-0.2138 -10.8086,-2.4228 -13.6982,-2.4228 -2.8897,0 -12.5293,4.0283 -21.1299,2.3672 -8.6006,-1.6611 -22.0674,-6.1602 -21.9922,-12.2598 0.075,-6.0996 23.0645,-10.1933 23.0645,-10.1933 0,0 11.1264,-5.6775 16.6233,-6.96 5.4968,-1.2825 11.0593,-4.428 15.7619,-7.4966 4.7027,-3.0686 13.2545,-5.7677 26.2572,-11.6863 13.0028,-5.9185 17.3082,-16.2641 26.0981,-23.9221 8.7898,-7.6581 7.5385,-11.4387 15.2828,-19.3322 7.7444,-7.8935 47.7696,-58.2151 57.8985,-99.1116 10.129,-40.8965 37.7422,-57.1289 37.2481,-69.211 -0.4941,-12.082 5.9092,14.9029 8.4902,18.8765 2.5811,3.9736 12.5572,19.7251 13.7891,23.9727 1.2319,4.2475 21.8188,54.7729 24.5732,56.1503 2.7544,1.3775 15.7808,32.6133 15.7808,32.6133 0,0 28.6484,36.7925 31.6899,40.8199 3.0415,4.0273 28.2539,33.7636 36.0269,36.8354 7.7729,3.0718 26.6147,11.8608 30.8472,14.1294 4.2324,2.2685 7.9111,6.2153 14.143,7.9927 6.232,1.7773 29.9947,11.1303 31.6597,11.5361 9.5474,-4.7866 2.729,10.5049 2.729,10.5049 0,0 -18.9444,7.6929 -23.4008,7.2489 -4.4563,-0.444 -13.9249,-3.5027 -17.6127,-3.6754 -3.6878,-0.1726 -8.1901,1.3117 -14.2361,2.1031 -6.046,0.7913 -19.7924,-2.6413 -24.7726,-2.295 -4.9801,0.3463 -7.1705,3.136 -13.7982,2.8412 -6.6277,-0.2949 -12.894,0.075 -16.5131,0 -3.6191,-0.079 -4.6331,7.1474 -5.9068,11.3907 -1.2737,4.2434 8.4773,25.4783 8.4773,25.4783 0,0 4.1546,29.7475 8.9649,35.4824 4.8102,5.7349 68.7947,72.9842 68.7947,72.9842 0,0 23.1904,22.3188 39.2666,27.3569 16.0762,5.0381 33.3491,14.5933 41.8388,13.5772 8.4898,-1.0161 32.0899,3.2724 32.0899,3.2724 11.998,0.4009 -9.6924,14.4053 -9.6924,14.4053 0,0 -8.0376,1.668 -12.9892,1.1675 -4.9517,-0.5005 -7.3863,-1.4697 -12.0362,-1.2334 -4.6499,0.2363 -18.165,9.4687 -26.73,9.4687 -8.5649,0 -20.9375,-3.9416 -23.625,-3.9416 -2.6875,0 -23.7861,4.737 -29.6796,5.5349 -5.8936,0.7978 -16.3331,7.4741 -18.6641,16.0615 -2.3311,8.5874 3.0718,21.0025 3.0718,21.0025 0,0 12.9931,31.8974 39.0771,54.3256 26.084,22.4283 45.5601,39.4893 64.8696,44.9854 19.3096,5.4961 43.5249,22.4272 43.5249,22.4272 l 4.9521,2.7652 c 0,0 -5.1227,15.0688 -11.1179,16.5424 -5.9953,1.4736 -13.1409,-1.2091 -21.2498,-1.2091 -8.109,0 -2.7111,4.7675 -11.4291,5.121 -8.718,0.3536 -16.2213,-3.0155 -21.7994,-3.251 -5.5782,-0.2355 -20.3729,8.0627 -25.8999,8.0627 -5.527,0 -11.5692,-6.6015 -22.6205,-6.3364 -11.0513,0.2652 4.7143,37.5713 6.5138,52.2866 1.7995,14.7152 18.2232,29.5659 18.2232,29.5659 l 26.6035,60.7214 -5.1224,438.4794 L 1.3154297,2479.418 0.2421875,1144.6855 Z"
         id="path10847" /><path
         style="opacity:1;fill:#000000;fill-opacity:0.25;stroke:none;stroke-width:4;stroke-opacity:1"
         d="m 1684.251,1906.0063 c 0,0 22.481,-19.0684 27.8023,-24.0181 5.3212,-4.9498 22.5901,-27.9307 27.7387,-34.8458 5.1487,-6.915 11.4781,-28.269 11.4781,-35.4603 0,-7.1912 -4.0327,-36.5679 -10.8386,-35.8608 -6.8059,0.7071 -38.1286,1.7844 -44.9427,1.7844 -6.8142,0 -13.5566,-5.4414 -19.4082,-5.3185 -5.8516,0.1229 -14.6075,8.7228 -20.2354,5.3088 -5.6278,-3.414 -23.8428,-7.6704 -22.1081,-12.5152 1.7346,-4.8448 37.1237,-14.9675 38.177,-15.5525 1.0532,-0.5849 4.8286,-0.2632 9.3828,-3.3921 4.5542,-3.1289 14.9526,-9.7007 21.5092,-11.9438 6.5567,-2.2432 6.1924,-2.7969 11.9644,-5.0127 5.772,-2.2158 39.7676,-42.8985 52.3906,-54.124 12.6231,-11.2256 32.7227,-45.917 37.0772,-60.1612 4.3545,-14.2441 23.3222,-56.123 26.0556,-63.4531 2.7334,-7.3301 13.6155,-16.5998 16.8541,-25.0782 3.2386,-8.4784 19.0131,11.3268 19.8376,13.1754 0.8245,1.8485 15.5398,42.7993 18.6161,46.5047 3.0764,3.7054 18.5719,38.8494 22.1123,46.7215 3.5404,7.8721 23.4554,39.4198 28.9099,44.7459 5.4545,5.3261 28.6579,32.6353 34.6945,38.3094 6.0367,5.6742 9.4803,10.298 20.5234,14.8797 11.043,4.5817 15.8291,3.9484 20.1705,9.1344 4.3414,5.1859 7.2837,15.3208 19.7969,21.9451 12.5131,6.6243 39.3072,9.7497 40.2968,14.3776 0.9895,4.628 -8.3465,7.1346 -18.5119,5.5354 -10.1653,-1.5993 -27.9859,-4.4498 -38.0843,-4.3442 -10.0984,0.1057 -21.9576,-0.6657 -31.092,-1.7346 -9.1343,-1.069 -16.8041,0.1339 -25.0007,2.3789 -8.1967,2.2449 -15.2139,9.6454 -14.0938,15.0716 1.12,5.4262 10.8883,18.4096 10.6722,22.7372 -0.2162,4.3276 4.3524,29.6066 9.4762,36.7184 5.1237,7.1118 44.1796,47.1511 44.1796,47.1511 l 17.0113,16.6439 c 0,0 19.7811,17.2295 30.436,23.8442 10.6549,6.6146 31.197,19.8977 37.6099,19.3839 6.413,-0.5137 38.4966,5.5637 47.1338,4.7751 8.6372,-0.7886 6.4441,9.7282 5.2508,9.9057 -1.1932,0.1775 -3.1032,7.9397 -12.8971,7.6055 -9.7938,-0.3342 -13.7623,-1.9632 -22.8339,-1.6096 -9.0715,0.3535 -16.0321,11.5547 -24.4248,10.6232 -8.3928,-0.9316 -22.5922,-7.5904 -26.6698,-5.5713 -4.0776,2.0192 -30.8807,8.4473 -39.7679,8.2167 -8.8872,-0.2306 -24.6258,1.9839 -24.6258,1.9839 l -5.3917,6.4192 v 481.7671 h -329.1734 z"
         id="path10903" /><path
         style="opacity:1;fill:#000000;fill-opacity:0.25;stroke:none;stroke-width:4;stroke-opacity:1"
         d="m 2048.2153,2244.2822 c 0,0 15.1812,-16.271 19.7227,-18.3218 4.5415,-2.0507 12.1221,-3.3769 19.2588,-6.394 7.1367,-3.0171 18.0952,-9.8691 21.3188,-14.7617 3.2237,-4.8926 27.9883,-51.2246 29.3545,-62.3584 1.3662,-11.1338 16.9893,-45.1963 12.9951,-66.9912 -3.9941,-21.795 -5.832,-12.3985 -14.3769,-18.3125 -8.5449,-5.9141 -13.7406,-9.264 -18.4508,-7.334 -4.7101,1.9301 -15.3989,4.8234 -19.5932,2.2422 -4.1943,-2.5812 -12.6443,-10.1087 -16.2393,-7.9529 -3.5949,2.1559 -14.8982,11.9587 -18.8067,6.2611 -3.9084,-5.6976 -16.1301,-11.8489 -15.7683,-15.1697 0.3618,-3.3207 6.8826,-5.3758 12.5898,-7.7029 5.7073,-2.3271 70.025,-36.0479 74.8691,-40.1089 4.8441,-4.0611 31.1666,-23.0418 36.3283,-33.5717 10.858,-9.4672 22.4714,-27.3935 25.2936,-32.538 2.8222,-5.1445 5.2501,-9.5335 6.6885,-14.6883 1.4384,-5.1549 4.224,-21.1262 4.224,-25.2252 0,-4.099 -12.6934,-11.967 -16.5314,-10.695 -3.838,1.2719 -14.0399,-2.825 -17.5175,-2.7856 -3.4775,0.039 -12.7983,-4.4036 -15.3858,-2.6627 -2.5874,1.7408 -20.9666,4.2274 -27.4363,3.5168 -6.4696,-0.7105 -18.8633,-9.327 -21.6793,-9.8269 -2.816,-0.5 -20.571,3.9878 -23.57,2.9872 -2.999,-1.0006 -14.2429,-9.0867 -14.5854,-11.6845 -8.4308,-10.1474 29.5362,-5.3254 35.4416,-8.7712 5.9055,-3.4457 29.8919,-5.1051 45.1368,-15.8836 19.578,-10.4306 51.7293,-39.7334 51.7293,-39.7334 0,0 29.8925,-32.116 33.2782,-35.1999 3.3857,-3.084 16.2586,-17.6542 17.3006,-21.6545 1.0116,-6.8867 11.487,-30.1991 9.1744,-35.568 -2.3126,-5.3689 3.3954,-25.3854 -3.3974,-30.5258 -6.7928,-5.1403 -15.546,-9.8297 -21.6116,-9.8297 -6.0657,0 -25.1653,1.4303 -27.0232,2.1109 -1.8579,0.6807 -13.4473,-1.7939 -16.2354,-2.0571 -2.7881,-0.2632 -11.4048,4.7354 -15.3061,3.6797 -3.9014,-1.0557 -24.4209,-8.7744 -26.3594,-10.5093 -13.7827,-9.8852 16.5088,-8.8623 34.0137,-17.0127 19.9897,-7.2881 14.6357,-8.687 18.1191,-10.7954 3.4834,-2.1084 21.8003,-7.6099 27.6577,-10.7012 5.8575,-3.0913 22.4776,-20.8808 24.5362,-24.187 2.0586,-3.3061 43.8807,-50.9529 49.3677,-63.6794 5.4869,-12.7266 26.5593,-56.5962 26.5593,-56.5962 0,0 11.0837,-33.1698 12.9675,-37.8385 1.8838,-4.6687 16.4458,-21.9389 16.9816,-26.8894 0.5359,-4.9504 18.4766,16.7703 19.0422,18.6348 0.5655,1.8644 23.0514,57.4029 26.5944,61.6002 3.5429,4.1972 8.7861,18.636 10.9724,22.3362 2.1862,3.7003 4.196,10.2051 7.7187,15.5902 3.5228,5.3852 12.6786,22.8094 17.5372,27.0631 4.8586,4.2537 16.7265,23.0327 18.4642,24.9535 1.7377,1.9207 23.685,25.0187 25.0077,26.3929 1.3227,1.3741 7.7302,9.5642 12.1962,10.7371 4.466,1.1729 24.3599,12.5566 29.6812,14.4011 5.3213,1.8444 12.3177,6.1968 16.0107,7.4784 3.693,1.2817 31.4773,19.6299 31.4773,19.6299 0,0 -7.6269,7.0959 -16.5362,7.2727 -8.9093,0.1767 -20.5738,-2.8589 -25.2687,-2.8589 -4.6949,0 -37.9941,-2.3781 -42.3721,-0.4386 -4.3779,1.9394 -1.959,8.0547 -13.166,6.5478 -11.207,-1.5068 -17.4394,11.8145 -16.1953,16.669 1.2441,4.8545 14.4199,53.4521 16.9727,55.4912 2.5527,2.0391 40.6611,47.2978 48.0771,52.7246 7.416,5.4268 66.4688,54.2969 76.9854,57.4629 10.5166,3.166 24.5654,17.9443 24.5654,17.9443 0,0 -34.9815,5.8037 -44.9707,6.0274 -9.9893,0.2236 -26.6221,-2.042 -30.6133,1.29 -3.9912,3.332 -13.6748,8.0156 -24.6514,4.9219 -10.9765,-3.0938 -20.3701,1.0859 -20.8193,5.25 20.7627,24.1172 26.2363,42.1816 26.2363,42.1816 0,0 20.3828,29.8789 24.8399,32.6172 4.457,2.7383 16.0058,26.8027 16.0058,26.8027 61.1635,166.6278 2.3677,335.5006 0,503.3173 h -549.6931 z"
         id="path10905" /><path
         id="path10919"
         style="display:inline;opacity:1;fill:#000000;fill-opacity:0.25;stroke:none;stroke-width:4;stroke-opacity:1"
         d="m 3413.3086,755.83594 c -0.4123,0.15819 -0.7211,0.56787 -0.8906,1.2832 -1.356,5.72264 -10.4385,14.38966 -12.7832,17.27148 -2.3448,2.88184 -11.4737,36.99611 -12.5528,41.34961 -1.0791,4.35352 -18.4765,48.06592 -19.2597,51.6543 -0.7832,3.58838 -17.4693,38.11915 -19.8731,41.49609 -2.4038,3.37695 -20.686,31.92286 -23.1972,35.70118 -2.5113,3.77831 -23.938,29.6526 -25.1426,32.66015 -1.2046,3.00757 -10.1817,9.17349 -14.0059,11.29688 -3.8242,2.12339 -12.9896,4.71905 -17.082,7.66797 -4.0925,2.94892 -12.7036,10.5993 -15.7012,11.8281 -2.9976,1.2288 -38.7939,8.6869 -35.8633,19.2617 0.3004,4.6038 19.6752,11.2052 22.8106,12.4102 3.1353,1.205 15.3944,-2.7683 17.0078,-2.6074 1.6135,0.1609 10.0312,2.7838 19.3555,1.2988 9.3243,-1.485 10.748,-3.5859 14.3535,-4.3359 3.6055,-0.75 19.5057,3.6836 26.9765,4.6289 7.4707,0.9453 -3.3612,32.1269 0.1329,36.6933 3.4941,4.5664 -7.4336,42.7383 -8.1836,48.2637 -0.75,5.5254 -30.4835,36.6269 -47.3711,57.584 -3.1797,16.0498 -44.5508,44.9951 -51.8067,48.748 -7.2558,3.753 -2.3769,2.5303 -23.4844,-13.6914 -21.1073,-16.2217 -35.2011,-57.4043 -35.2011,-57.4043 0,0 -3.2558,-11.4419 -4.9942,-12.9707 -1.7384,-1.5289 -8.4332,-14.8649 -7.9004,-19.6054 0.5327,-4.7406 7.9864,-3.7999 12.8985,-4.2129 4.9122,-0.4129 16.7743,-2.3946 18.7109,-2.3946 1.9366,0 10.1485,0.8991 13.5957,0.1036 3.4471,-0.7952 5.7076,-0.3187 8.5899,0.021 2.8823,0.3401 4.6149,1.3412 9.2304,2.2168 4.6156,0.8756 8.1471,-2.1707 12.0137,-2.7148 3.8667,-0.5441 15.1413,-14.8666 0.4785,-13.8477 -1.9525,-0.5625 -14.5716,-6.231 -18.1914,-7.8144 -3.6198,-1.5834 -7.4647,-5.534 -10.5058,-5.793 -3.0411,-0.2589 -9.7243,-6.0597 -16.3282,-10.1777 -5.7808,-3.0991 -16.5556,-19.3887 -30.4238,-36.3887 -8.416,-5.8584 -35.1803,-78.70459 -36.2598,-81.03124 -1.0796,-2.32666 -9.5664,-28.67237 -12.2363,-30.74414 -2.6699,-2.07178 -6.3008,-17.97168 -8.5566,-12.36329 -2.2559,5.60839 -5.4214,11.05957 -6.2422,11.75586 -0.8208,0.69629 -3.461,8.90625 -3.461,8.90625 0,0 -20.9936,58.15775 -23.9746,66.97066 -0.7627,7.7837 -15.6347,29.7325 -15.6347,29.7325 0,0 -24.1177,33.4336 -31.9219,42.0332 -5.7178,7.2983 -12.336,9.0361 -23.0664,13.789 -4.773,6.0225 -17.2461,10.1114 -17.2461,10.1114 0,0 -16.814,2.1757 -10.8574,10.1582 1.479,1.288 13.4492,7.0786 18.6445,7.498 5.1953,0.4194 4.2988,-2.4873 5.7031,-2.3555 1.4043,0.1319 6.8194,1.3697 11.2774,1.1192 4.458,-0.2505 11.6411,-2.4102 13.0957,-1.9356 1.4545,0.4746 11.2094,2.44 17.1191,4.2032 5.9097,1.7631 2.3696,17.1581 3.252,22.0507 0.8823,4.8925 -3.4991,19.4624 -4.6211,27.2793 -1.1221,7.8169 -18.0489,27.0215 -18.0489,27.0215 0,0 -32.7528,37.6055 -40.83,47.1953 -8.0771,9.5899 -34.9429,15.4083 -38.4258,17.0782 -3.4829,1.67 -22.8676,2.2159 -22.3652,4.0586 0.5025,1.8428 8.3027,10.7661 9.5449,12.5058 1.2421,1.7398 13.8179,-2.1426 18.082,-2.2676 4.2642,-0.125 10.4317,7.7128 12.5625,8.5918 2.1309,0.8789 11.8725,-4.3974 15.0488,-3.9414 3.1763,0.4561 11.9909,4.4018 23.125,10.3418 11.1342,5.94 0.3688,32.6463 -2.1406,42.2129 -2.5094,9.5667 -30.6719,33.0332 -30.6719,33.0332 l -42.7636,1111.9668 h 608.4472 V 1073.1641 c 0,0 -7.9033,-4.4809 -22.6738,-12.4317 -14.7705,-7.9508 -8.7963,-18.2442 -4.4902,-17.5371 4.3062,0.7071 29.8769,-5.6348 29.8769,-5.6348 v -89.07027 l -6.4941,-8.36328 c 0,0 -15.5171,-25.47267 -21.5039,-32.22656 -5.9868,-6.7539 -23.666,-52.33398 -23.666,-52.33398 0,0 -12.4931,-33.30275 -13.8086,-41.14258 -1.3154,-7.83984 -15.733,-38.7588 -17.1329,-43.95703 -1.2249,-4.54846 -9.2115,-15.73823 -12.0976,-14.63086 z m -166.7852,525.71676 c 7.2508,0.7594 16.8949,24.0494 16.9121,30.1153 0.02,6.6933 -16.4746,38.3496 -21.9902,48.0429 -5.5156,9.6934 -10.4512,11.4532 -23.2168,3.8379 0,0 -20.7617,-27.1836 -25.1523,-35.6211 -4.3907,-8.4375 0.205,-19.1015 8.9101,-35.6113 8.7051,-16.5098 35.0645,-5.457 42.377,-10.2324 0.6855,-0.4477 1.4101,-0.6098 2.1601,-0.5313 z" /></g><path
       style="display:inline;opacity:1;fill:#000000;fill-opacity:0.15;stroke:none;stroke-width:4;stroke-opacity:1"
       d="m -0.07714844,802.67968 c 0,0 39.83007844,-33.12109 46.88085944,-43.76855 7.050781,-10.64746 35.716797,-45.55762 38.233398,-48.88574 2.516602,-3.32813 24.352541,-33.34863 29.214841,-37.28125 14.66114,-20.2959 44.35254,-57.27246 47.00391,-60.97266 2.65137,-3.70019 25.70801,-39.63867 25.70801,-39.63867 l 18.69043,-29.16992 c 2.2832,-9.95996 20.73925,-50.98926 20.73925,-50.98926 0,0 4.54004,-20.70312 6.45215,-28.0459 1.91211,-7.34277 16.77344,-45.88281 16.77344,-45.88281 0,0 4.4069,-1.4955 10.18736,5.38602 5.78046,6.88151 22.9202,27.65519 26.85625,30.37866 3.93604,2.72347 11.84956,11.82574 18.03881,14.08586 10.49508,7.21504 24.64732,18.04839 26.96543,20.73198 2.31812,2.68359 22.60376,21.0752 22.60376,21.0752 0,0 10.65015,14.36767 14.09815,15.77099 5.15551,4.66455 23.24804,18.84741 23.24804,18.84741 0,0 11.67652,10.95435 13.72779,12.83716 2.05127,1.88281 14.44336,14.47022 15.53808,15.09229 1.09473,0.62207 11.71997,11.3855 15.60132,13.58252 3.88135,2.19702 9.36377,8.44653 15.58423,10.04077 7.62549,5.38647 27.1853,18.17895 27.1853,18.17895 0,0 9.46533,8.2085 11.49219,10.99561 2.02685,2.78711 8.03149,10.54809 9.48364,11.93652 1.45215,1.38843 20.15723,26.78613 25.30371,31.1919 5.14649,4.40576 17.07837,17.76245 24.11646,17.52832 7.84936,3.71362 6.8623,4.36474 8.19629,3.89721 1.33398,-0.46753 15.57104,-12.13818 15.57104,-12.13818 0,0 30.25125,-23.28745 33.8731,-26.54746 3.62186,-3.26001 20.24025,-15.7276 23.60246,-18.86884 3.36221,-3.14124 23.28135,-25.43444 27.9024,-31.53945 4.62105,-6.10501 17.6901,-14.75878 20.6449,-18.2446 2.95479,-3.48581 23.96014,-28.53769 29.69019,-34.74629 5.73005,-6.20859 38.31773,-57.72656 38.69615,-60.28844 0.37841,-2.56189 3.23929,-8.92585 6.00971,-14.40661 2.77043,-5.48077 16.88908,-29.73716 21.24704,-35.4099 4.53129,-7.20986 23.21092,-34.22424 26.85003,-37.20804 3.63912,-2.98379 10.82896,-11.79225 12.83151,-15.48039 2.00255,-3.68814 9.29804,-24.65689 13.88871,-29.96296 4.59067,-5.30606 24.91515,-39.11391 24.91515,-39.11391 0,0 5.90683,-15.93545 13.82035,-16.11223 7.91352,-0.17678 10.45952,8.30988 12.12992,11.34409 1.6704,3.03421 3.51896,20.97911 10.44018,28.16964 6.92122,7.19053 19.39503,31.03812 32.82246,36.79649 15.64198,12.26733 30.31928,26.31901 39.89491,40.51086 9.57564,14.19186 20.92732,42.02383 21.08822,42.81656 0.16089,0.79273 17.02992,46.07726 17.02992,46.07726 l 24.9877,58.2493 14.466,47.94447 c 0,0 5.4524,22.76138 9.5687,30.10452 4.1163,7.34313 70.5816,77.07809 71.5048,81.19022 0.9232,4.11213 15.0115,23.15429 22.2911,28.89539 7.2796,5.7411 32.4317,24.73286 34.3589,26.27758 1.9273,1.54472 29.4699,30.7771 32.9302,33.88726 3.4603,3.11017 26.4461,30.54577 31.0961,34.03988 4.6501,3.4941 43.3953,48.27315 43.195,54.58601 -0.2002,6.31287 22.1247,41.82288 33.0821,48.11227 10.9574,6.28938 42.946,34.09718 42.946,34.09718 0,0 29.7987,18.15143 33.2323,21.20563 3.4337,3.0542 21.4097,21.0847 22.093,21.8564 0.6833,0.7717 3.5797,3.2899 3.5797,3.2899 l 128.6768,-89.95661 c 0,0 45.1983,-46.60595 51.063,-50.96337 5.8648,-4.35743 27.4263,-26.90967 30.6055,-28.79102 4.4619,-5.64209 10.9871,-13.35836 10.9871,-13.35836 0,0 64.4396,-65.28447 76.2284,-78.92389 11.7888,-13.63943 24.8316,-35.70337 34.3167,-43.07827 9.4852,-7.37491 44.6168,-45.19683 54.2981,-57.06573 9.6813,-11.8689 23.4423,-49.48919 31.5546,-59.71462 8.1124,-10.22542 85.5951,-89.11645 85.5951,-89.11645 0,0 52.202,-56.09006 56.9129,-61.64437 4.7108,-5.55431 33.9766,-47.5077 38.1872,-55.30107 5.9952,-17.94249 19.6698,-51.92229 19.6698,-51.92229 0,0 11.5157,-22.71304 11.3389,-27.03923 -0.1767,-4.3262 1.5061,-10.53755 1.8417,-12.76556 0.3356,-2.22801 11.7733,18.14827 11.7733,18.14827 0,0 8.2225,20.43773 12.3395,25.42477 4.1169,4.98703 10.108,12.55701 11.2539,16.96435 1.146,4.40733 20.088,43.93211 20.088,43.93211 0,0 3.3565,13.08388 6.4649,18.4247 3.1084,5.34082 18.5373,41.77226 18.5373,41.77226 l 22.5413,50.6982 c 0,0 16.9372,34.87207 24.3977,42.9603 7.4606,8.08822 32.8098,45.1437 32.8098,45.1437 l 27.545,40.61164 c 0,0 22.6329,31.36302 23.8199,32.92915 1.1871,1.56613 17.3017,20.9142 21.4529,25.36331 4.1511,4.44911 17.4176,27.25261 17.4176,27.25261 l 3.6902,7.41323 c 0,0 37.8884,-35.55993 41.177,-38.02966 3.2885,-2.46972 68.6796,-60.11963 71.1782,-61.24853 2.4985,-1.12891 29.9018,-25.667 33.4526,-28.65283 3.5508,-2.98584 141.04,-124.87452 152.8525,-140.85303 11.8125,-15.97852 25.6114,-41.93555 40.0293,-53.34766 14.418,-11.41211 11.1139,-12.86772 19.4818,-27.03126 8.3679,-14.16355 38.7776,-62.33796 38.7776,-62.33796 0,0 25.6644,-45.95503 26.5103,-50.46974 0.8459,-4.51472 18.1238,-61.76136 18.1238,-61.76136 0,0 2.9858,-7.86035 16.4809,3.74338 13.4951,11.60374 30.782,59.22365 30.782,59.22365 l 18.884,44.36957 c 0,0 -0.1429,12.66439 11.1632,21.2353 11.3061,8.57091 -1.1456,8.45144 14.9189,14.29612 21.8175,13.45575 33.7596,18.55396 42.8097,32.84801 9.0501,14.29406 14.3624,32.3239 21.5454,39.55379 6.0283,8.85126 11.6748,19.53659 14.4349,19.53659 2.76,0 20.4425,20.81821 22.0011,24.73976 1.5585,3.92154 21.7691,48.92622 26.0855,55.42329 4.3164,6.49707 25.1972,37.30078 27.6142,42.77637 2.417,5.47559 8.71,28.41664 11.408,32.75941 2.6979,4.34277 11.4697,22.92711 13.6318,27.01024 2.1621,4.08312 14.9155,72.23952 16.3304,88.76676 1.4149,16.52724 -0.6042,37.31093 2.0599,42.48993 2.6641,5.17901 1.6814,26.06904 6.732,32.6008 5.0506,6.53176 9.635,21.64686 9.635,21.64686 0,0 62.9373,-35.40388 79.5467,-48.51717 16.6094,-13.11328 60.4297,-37.50586 60.4297,-37.50586 0,0 18.9609,-21.2998 36.5976,-34.31249 17.6367,-13.0127 56.5996,-40.87207 62.8897,-48.61622 6.29,-7.74414 42.0703,-52.97753 49.8008,-62.04882 7.7304,-9.07129 59.2041,-65.08594 59.2041,-65.08594 0,0 39.8623,-39.47754 40.9423,-42.29981 1.0801,-2.82226 15.8067,-32.66503 23.7364,-38.60253 7.9296,-5.9375 41.7201,-41.04456 41.7201,-41.04456 L 3508,2480 H 0 Z"
       id="path3253"
       inkscape:label="mountains" /></g></svg>
